<?xml version="1.0" encoding="utf-8"?>
<!-- Svg Vector Icons : http://www.onlinewebfonts.com/icon -->
<!DOCTYPE svg PUBLIC "-//W3C//DTD SVG 1.1//EN" "http://www.w3.org/Graphics/SVG/1.1/DTD/svg11.dtd">
<svg version="1.1" xmlns="http://www.w3.org/2000/svg" xmlns:xlink="http://www.w3.org/1999/xlink" x="0px" y="0px" viewBox="0 0 1000 1000" enable-background="new 0 0 1000 1000" xml:space="preserve">
<metadata> Svg Vector Icons : http://www.onlinewebfonts.com/icon </metadata>
<g><g transform="translate(0.000000,512.000000) scale(0.100000,-0.100000)"><path d="M4526.2,5008.1c-1477.3-151.4-2791.8-942.7-3625.3-2186.3C594.3,2362,306.9,1678,197.7,1139.5C115.3,733.3,100,574.3,100,124c0-450.3,15.3-605.5,97.7-1015.5C305-1422.3,592.4-2108.3,900.9-2573.9c921.6-1377.7,2458.4-2207.3,4094.7-2207.3c1850.9,0,3556.3,1059.6,4386,2722.8c831.6,1668.9,653.4,3631-467.5,5123.7c-776,1034.7-1921.8,1714.9-3228.6,1916.1C5445.9,5017.7,4771.4,5035,4526.2,5008.1z M5589.6,4577c802.9-105.4,1559.7-427.3,2207.4-938.9c180.1-141.8,571-532.7,712.8-712.8c507.8-645.7,829.7-1400.7,942.7-2216.9c42.2-308.5,42.2-864.2,0-1168.8C9170.8-2489.6,7609.2-4051.2,5580-4332.8c-304.7-42.2-860.3-42.2-1168.8,0c-816.3,113-1571.2,434.9-2216.9,942.7c-180.1,141.8-571,532.7-712.8,712.8C969.9-2027.8,657.6-1292,538.8-460.4c-38.3,275.9-44.1,833.5-9.6,1105.6c99.6,797.1,402.4,1548.2,883.3,2190.1c184,245.3,626.6,687.9,871.8,871.8C3246.2,4427.6,4407.4,4732.2,5589.6,4577z"/><path d="M2646.5,2942.6c-103.5-63.2-126.5-206.9-47.9-297c17.2-19.2,249.1-182,515.4-362.1c264.4-180.1,482.9-331.5,482.9-339.2c0-7.7-208.9-153.3-463.7-325.7c-517.3-346.8-563.3-385.1-580.6-459.9c-26.8-118.8,84.3-249.1,210.8-249.1c40.2,0,640,389,1297.2,841.2c138,95.8,162.9,237.6,57.5,337.2c-28.7,26.8-333.4,237.6-678.3,469.5c-442.6,297-643.8,421.5-680.2,421.5C2728.9,2979,2679.1,2961.8,2646.5,2942.6z"/><path d="M6561.1,2563.2c-339.2-228-636.2-427.3-659.1-444.5c-63.2-44.1-107.3-145.6-92-212.7c7.7-32.6,36.4-78.6,63.2-105.4c28.8-26.8,333.4-237.6,678.3-469.4c442.6-297,643.8-421.5,680.2-421.5c82.4,0,170.5,65.1,197.3,141.8c19.2,59.4,17.3,80.5-13.4,139.9c-28.7,59.4-118.8,130.3-523.1,402.4c-268.3,182-488.6,339.1-488.6,350.6c0,11.5,220.4,168.6,488.6,350.6c404.3,272.1,494.4,343,523.1,402.4c30.7,59.4,32.6,80.5,13.4,139.9c-26.8,76.7-115,141.8-197.3,141.8C7193.4,2979,6999.9,2858.3,6561.1,2563.2z"/><path d="M1381.9,58.9c-61.3-61.3-65.1-74.7-65.1-185.9c0-168.6,46-492.4,95.8-687.9c216.5-845,841.2-1665.1,1653.6-2169c1318.3-820.1,2876.1-745.4,4146.5,197.4c663,492.4,1178.4,1235.9,1366.2,1971.7c49.8,195.4,95.8,519.2,95.8,687.9c0,111.2-3.8,124.6-65.2,185.9l-65.1,65.1H4995.6H1447L1381.9,58.9z M8253-316.7c0-74.7-74.7-417.7-122.6-565.3c-74.7-224.2-279.7-624.7-427.3-833.5c-147.5-205-444.5-521.2-634.2-676.4c-1310.6-1069.2-3152-986.8-4359.1,195.4c-371.7,362.1-620.8,730-799,1182.2c-67.1,168.6-145.6,463.7-164.8,626.6l-11.5,109.2h3259.3C8220.4-278.4,8253-278.4,8253-316.7z"/></g></g>
</svg>